Patient4_TMGait_0pt4_02_right_03_EMG.mot
version=1
nRows=26
nColumns=33
inDegrees=no
endheader
time	1LAddLong	2LGlutMax	3LGlutMed	4LIliopsoas	5LSemiMemb	6LBicFemLong	7LRecFem	8LVastMed	9LVastLat	10LGasMed	11LTibAnt	12lTibPost	13LPeroneusLong	14LSol	15LExtDigLong	16LFlexDigLong	17RAddLong	18RGlutMax	19RGlutMed	20RIliopsoas	21RSemiMemb	22RBicFemLong	23RRecFem	24RVastMed	25RVastLat	26RGasMed	27RTibAnt	28RTibPost	29RPeroneusLong	30RSol	31RExtDigLong	32RFlexDigLong
3.26	0.00412	0.040588	0.080719	0.009155	0.050812	0.070648	0.007324	-0.001526	-0.011444	0.052795	0.02533	0.034027	-0.092163	-0.014038	0.017395	-0.00885	-0.005951	-0.009308	0.051727	-0.064392	0.006104	-0.063782	0.002899	-0.083923	0.03067	0.018921	0.072784	-0.002136	-0.17075	-0.053253	-0.005798	-0.010834
3.261	0.003204	0.043488	0.061951	-0.002289	0.10666	0.037994	-0.009308	0.005798	0.007629	0.032043	0.025482	0.024261	-0.015564	0.023499	0.016937	0.001373	0.001831	-0.05249	0.02594	0.045166	0.000458	-0.078583	0.014648	-0.088043	0.018005	0.017548	0.11032	-0.002747	-0.26169	-0.009308	-0.00351	-0.012512
3.262	0.005493	0.032806	0.04715	0.003662	0.046997	0.027924	-0.03891	0.003357	-0.027161	0.036774	0.025635	0.03891	0.016785	0.064545	0.044708	0.001984	-0.001526	-0.021057	-0.13657	0.05661	-0.002289	-0.067596	0.081329	-0.12451	0.005951	0.018616	0.12497	-0.010071	-0.35217	0.020294	-0.005035	-0.010376
3.263	0.007935	0.0383	0.010834	-0.005798	0.006409	0.027771	-0.022278	-0.019836	-0.076599	0.067139	0.019836	0.039825	-0.018616	0.079041	0.048523	0.003815	-0.009155	0.003815	0.006256	0.024109	-0.008545	-0.061951	0.028076	-0.14313	0.01236	0.018311	0.080566	-0.00351	-0.25711	0.013733	-0.005341	-0.008392
3.264	-0.000153	0.028992	-0.004883	-0.000458	-0.012512	0.024719	-0.019684	0.003204	-0.080109	0.10208	0.00473	0.041809	0.000763	0.046692	0.042267	-0.006561	-0.005035	0.020447	-0.019226	-0.013428	-0.005798	-0.0383	0.026093	-0.10269	0.010223	0.017242	0.068054	-0.000916	-0.22369	-0.044403	-0.00351	-0.001984
3.265	0.008087	-0.009613	0.071564	-0.001678	0.016479	0.041351	0.007477	0.006104	-0.042725	0.13138	0.026855	0.034332	-0.010834	0.038605	0.042419	-0.007172	0.00351	-0.033569	-0.33814	0.00473	-0.002289	-0.019836	0.072632	-0.11917	0.006104	0.020142	-0.007935	0.009766	-0.13947	-0.092621	-0.006561	-0.00473
3.266	0.008392	0.011597	0.048065	0.002441	0.041809	0.051575	-0.002136	-0.01297	0.038757	0.1239	0.02533	0.0383	-0.037537	-0.013733	0.032043	0.004425	-0.006409	-0.04364	-0.43106	0.034027	-0.001526	-0.000305	0.045776	-0.08606	0.024872	0.019836	-0.005951	-0.003662	-0.1181	-0.071259	-0.005341	0.000305
3.267	0.005798	0.017853	0.035858	0.001678	0.006256	0.045624	0.029449	-0.011749	0.053253	0.090332	0.027161	0.04425	-0.099487	0.035095	0.019531	-0.00061	-0.005798	0.010223	0.084534	-0.011292	0.00824	-0.018768	0.027161	-0.12131	0.010986	0.012817	-0.008545	-0.006866	-0.011139	-0.040741	-0.005951	-0.003357
3.268	0.005035	-0.025482	0.023346	0.010681	0.00351	0.02533	0.04303	-0.007019	0.11047	0.062866	0.027008	0.060883	-0.15289	0.030975	0.038147	0.001831	-0.001221	0.029449	0.29419	0.001984	0.004272	-0.00885	-0.009613	-0.11246	0.012665	0	0.035248	-0.006561	0.077515	-0.002441	-0.004578	-0.001221
3.269	0.007935	-0.012512	0.074768	-0.003662	0.027161	0.025482	0.067139	-0.005035	0.058289	-0.019531	0.006409	0.11688	-0.11246	0.089264	0.06134	0.003204	-0.015564	0.002441	0.4245	0.019531	0.017242	-0.000458	-0.003204	-0.058899	0.013885	0.013428	0.046082	-0.005493	0.36911	0.011444	-0.00351	-0.006104
3.27	0.009003	-0.023956	0.093231	0.00885	0.037842	0.006714	0.046692	-0.005798	0.045929	-0.036316	-0.012512	-0.01358	-0.010681	0.050049	0.055542	0.005493	-0.003967	-0.024719	0.42007	0.063934	0.010986	-0.002899	-0.00061	-0.073853	0.030518	0.016174	0.008392	-0.002594	0.20279	-0.063477	-0.004272	-0.000763
3.271	0.007629	-0.043182	0.14221	-0.010529	0.012817	0.014191	0.001831	-0.003204	0.021973	0.005951	0.002747	0.006409	-0.010223	0.055542	0.042572	0.002899	-0.007324	-0.030212	0.51392	0.10376	0.017242	0.00412	-0.079956	-0.080872	0.00885	0.007935	0.058899	-0.005035	-0.1535	-0.044861	-0.006409	-0.005341
3.272	0.006714	-0.063782	0.005188	0.015259	0.012054	0.034485	-0.036621	0.000458	0.093842	0.038452	0.068512	0.043182	0.019989	0.098877	0.020294	-0.000153	-0.002899	-0.03067	0.027771	0.031128	0.007324	0.005798	-0.066528	-0.090179	0.007019	0.00351	0.04425	-0.004425	-0.36255	-0.040283	-0.002441	-0.003815
3.273	0.002899	-0.086517	-0.00824	0.01236	0.012054	0.0354	-0.038147	-0.003204	-0.000916	0.050507	0.11536	0.034485	-0.027618	0.04776	0.062408	0.004272	-0.004425	-0.030975	-0.018005	-0.066681	0.005951	0.010529	-0.08316	-0.068207	0.001373	0.008698	-0.04425	-0.006409	-0.44769	-0.054016	-0.006409	-0.00824
3.274	0.002747	-0.081329	-0.007019	0.015869	0.013123	0.028992	0.03479	0.004425	0.024261	0.057068	0.05127	0.036926	0.034637	0.13184	0.13794	-0.009766	0.001373	-0.087433	-0.014343	-0.11307	0.004272	0.028839	-0.073853	-0.12314	0.009766	0.003204	-0.055847	-0.008087	-0.19531	-0.03067	-0.008392	-0.002899
3.275	-0.002136	-0.070801	0.036163	0.015869	0.023041	0.007019	0.062866	0.000458	0.005493	0.06012	-0.11704	0.042267	0.159	0.078583	0.14236	-0.007019	-0.001526	-0.020447	0.31082	-0.10544	0.002136	0.026245	-0.049744	-0.12512	0.023041	-0.006104	-0.072632	-0.008698	0.083008	-0.02121	-0.006409	-0.002441
3.276	0.003357	-0.099182	0.038452	0.007019	0.006866	-0.015411	-0.03006	0.004425	-0.041962	0.068665	-0.22614	0.038757	0.17227	0.15366	0.027924	-0.002289	0.001678	-0.043335	0.17212	-0.05188	0.006561	0.034027	-0.023193	-0.11643	0.010986	-0.003052	0.022888	-0.000916	0.22049	0	-0.005035	0.000153
3.277	-0.004883	-0.079803	0.074005	-0.002899	0.010071	-0.030823	-0.098419	0.005951	-0.015259	0.010681	-0.29831	0.037384	0.34866	0.15533	0.11139	0.007019	0.00473	-0.054169	-0.027313	-0.00824	-0.001526	0.0354	0.020294	-0.090942	0.0177	-0.001678	0.14282	-0.005798	0.13351	-0.023651	-0.007782	0.007629
3.278	0.001984	-0.099335	0.064697	0.006866	0.008392	-0.046692	-0.12711	0.001831	0.021515	-0.033417	0.12894	0.033875	0.37903	0.1593	0.081635	0.001831	-0.00824	-0.044556	-0.10452	-0.001984	-0.007477	0.035706	-0.042725	-0.045013	0.019531	-0.004883	0.22934	-0.009155	-0.19577	-0.050812	-0.003967	0.001526
3.279	-0.007629	-0.12985	-0.045013	0.000763	0.009308	0.000458	-0.10452	0.001068	0.047913	-0.067749	0.28259	0.034332	0.42801	0.14236	-0.27832	-0.003967	-0.004425	-0.044861	0.15305	-0.061951	-0.011292	0.045013	-0.037384	-0.042877	0.019379	-0.007324	0.27741	-0.002899	-0.37872	-0.057373	-0.005035	0.001221
3.28	0.001373	-0.13168	-0.10559	-0.000153	0.00351	0.000153	-0.11581	0.000305	0.020905	-0.03891	0.18295	0.032806	-0.056458	0.15091	-0.27023	-0.000153	0.007019	-0.03479	0.24384	-0.080261	-0.003662	0.048523	-0.024872	-0.072784	0.004425	-0.013275	0.22339	-0.003204	-0.4306	-0.045624	-0.005341	0.00885
3.281	-0.002747	-0.21027	-0.18005	-0.014496	-0.002136	0.054016	-0.078735	-0.00946	0.019684	-0.015259	0.11063	0.031433	-0.41565	0.11429	0.53848	-0.00824	0.001221	-0.039215	0.045471	-0.03952	0.002441	0.039215	-0.033264	-0.092926	0.020447	-0.013428	-0.034637	-0.002136	-0.28748	-0.080719	-0.008392	0.010529
3.282	-0.001678	-0.18799	-0.10407	-0.012207	0.001221	-0.074158	0.006714	-0.023804	0.057678	-0.029144	0.19318	0.028534	-0.44006	0.10574	0.041962	-0.002594	0.003204	-0.027313	0.072937	-0.094452	-0.011292	0.029144	-0.0383	-0.092926	0.022888	-0.004883	-0.30792	-0.001984	0.28564	-0.097198	-0.005646	0.010071
3.283	0.002441	-0.19974	0.006409	0.00412	-0.020599	-0.070648	0.12741	-0.017395	0.031586	-0.018616	0.20477	0.033112	0.023651	0.045166	-0.81558	0.002441	0.006866	-0.006409	-0.048676	-0.057831	-0.006561	0.034637	-0.053253	-0.12299	0.005035	-0.001221	-0.007782	-0.000763	0.17364	-0.092316	-0.005188	0.007935
3.284	-0.007629	-0.16388	0.070648	0.021057	-0.030823	0.017395	0.1506	-0.004272	-0.028687	0.025787	0.04837	0.035553	0.031891	0.027771	-0.41596	0	-0.003357	-0.012665	-0.20554	-0.012817	-0.010071	0.044861	-0.037842	-0.11429	0.005798	-0.006104	0.055695	-0.009155	0.10864	-0.09079	-0.008392	0.002747
3.285	-0.008392	-0.17059	0.057526	0.023193	0.005646	0.00824	0.14267	0.000305	0.054474	0.038605	-0.06485	0.040283	-0.064392	-0.0177	-0.16937	0.000305	-0.002594	-0.003357	-0.030212	-0.015869	-0.01297	0.03418	-0.055389	-0.12802	0.015564	-0.008392	-0.063477	-0.002441	0.059814	-0.027466	-0.007172	0.003357
